<?xml version="1.0" encoding="utf-8"?>
<!-- Generator: Adobe Illustrator 26.0.1, SVG Export Plug-In . SVG Version: 6.00 Build 0)  -->
<svg version="1.1" id="Layer_1" xmlns="http://www.w3.org/2000/svg" xmlns:xlink="http://www.w3.org/1999/xlink" x="0px" y="0px"
	 viewBox="0 0 99.2 99.2" style="enable-background:new 0 0 99.2 99.2;" xml:space="preserve">
<style type="text/css">
	.st0{fill:#FFFFFF;}
</style>
<g>
	<path class="st0" d="M43.6,46.4c0-0.7,0-1.2,0-1.9c0-9.7,0-19.4,0-29.1c0-2.6,1.7-4.7,4.2-5.1c3-0.5,5.6,1.8,5.6,4.8
		c0,1.2,0,2.5,0,3.7s0,2.4,0,3.7c1.7-1,3.3-1.2,5.1-0.5c1.7,0.9,2.7,2.3,2.9,4.1c5-1.7,7.4-0.3,8,4.8c0.2-0.1,0.4-0.2,0.7-0.3
		c3.2-1.6,7.1,0.4,7.2,4c0.2,7.2,0.4,14.3,0,21.4c-0.5,8.9-7.7,16.3-16.4,17.8c-8.6,1.4-16.9-2.5-21.3-10.4c-2-3.5-3.5-7.4-5.4-11
		c-1.9-3.9-3.8-7.8-5.7-11.9c-0.3-0.7-0.6-1.4-0.7-2.2c-0.2-2,1.2-3.4,3.2-3.5c2.5-0.1,4.5,1,6,2.9c1.5,2,3,4.2,4.4,6.2
		c0.6,0.8,1.1,1.5,1.7,2.3C43.4,46.4,43.5,46.4,43.6,46.4z M45.6,31.5c0,5.4,0,10.9,0,16.3c0,1.3-0.6,1.6-1.8,1.1
		c-1.6-0.8-2.8-2.2-3.7-3.6c-1.3-2-2.8-4.1-4.2-6c-1.1-1.4-2.5-2.3-4.4-2.3c-1.2,0-1.8,0.8-1.5,1.9c0.1,0.4,0.3,0.7,0.4,1
		c1.6,3.2,3.2,6.4,4.8,9.6c2,4.2,3.7,8.6,6,12.7c4.2,7.7,11.8,11.3,20,9.7c8-1.5,14.5-9,14.6-16.9c0-6.7-0.1-13.3-0.2-20
		c0-1.8-1.3-3.1-3.1-3.1c-1.6,0-3,1.2-3,3c0,1,0,1.9,0,2.9c0,0.7-0.1,1.2-1,1.2s-1.1-0.6-1-1.2c0-2.4,0-4.9,0-7.3
		c0-2-1.2-3.3-3.1-3.3c-1.7,0-3,1.3-3,3.3c0,2.3,0,4.6,0,7c0,0.3,0.1,0.7-0.1,0.9c-0.2,0.3-0.6,0.7-1,0.7c-0.3,0-0.7-0.4-0.9-0.8
		c-0.1-0.2,0-0.5,0-0.8c0-3.5,0-7.2,0-10.7c0-0.8-0.3-1.7-0.8-2.4c-0.7-1.1-2.1-1.2-3.2-0.9c-1.2,0.5-2,1.5-2,3c0,3.5,0,7.2,0,10.7
		c0,0.3,0.1,0.7,0,1c-0.2,0.4-0.6,0.9-0.9,0.9c-0.4,0-0.8-0.4-1.1-0.8c-0.2-0.2-0.1-0.6-0.1-0.9c0-7.4,0-14.6,0-22
		c0-0.8-0.3-1.6-0.7-2.3c-0.7-1.1-2.1-1.4-3.2-1c-1.2,0.5-2,1.5-2,2.9C45.6,20.7,45.6,26.1,45.6,31.5z"/>
	<path class="st0" d="M48.6,0.8c7.7,0,12.8,7.9,9.5,15c-0.1,0.3-0.3,0.6-0.4,0.8c-0.4,0.6-0.8,0.9-1.4,0.5c-0.6-0.4-0.6-0.9-0.3-1.4
		c0.9-1.4,1.2-3,1.2-4.7c-0.1-4.4-3.6-7.9-8.2-8.2c-4.2-0.3-8.1,3-8.8,7.2c-0.3,1.9,0,3.7,1,5.4c0.5,0.9,0.4,1.4-0.2,1.7
		c-0.8,0.4-1.1-0.2-1.4-0.8C35.6,9.4,40.6,0.8,48.6,0.8z"/>
	<path class="st0" d="M25.3,10.2c3,0,5.8,0,8.8,0c1.3,0,1.8,0.3,1.7,1.1c-0.1,1.1-1,1-1.7,1c-3,0-5.8,0-9.1,0c0.5,0.6,0.9,1,1.3,1.3
		c0.5,0.5,0.8,1.1,0.2,1.6c-0.6,0.5-1.1,0.2-1.5-0.3c-1-1-1.9-1.9-2.9-2.9c-0.6-0.6-0.6-1.1,0-1.6c1-1,2-2,3-3
		c0.5-0.5,1-0.7,1.5-0.2c0.5,0.6,0.3,1.1-0.2,1.6c-0.4,0.4-0.9,0.8-1.2,1.1C25.2,10,25.3,10.1,25.3,10.2z"/>
</g>
<g>
	<path class="st0" d="M26.3,77.3l1.7,2.4l1.7-2.4h2.2l-2.7,3.9l2.9,4.2h-2.2L28,82.7l-1.9,2.7H24l2.9-4.1l-2.7-3.9H26.3z"/>
	<path class="st0" d="M40.3,77.3l-3.4,6.4c-0.3,0.6-0.7,1.1-1.2,1.4c-0.5,0.3-1,0.5-1.5,0.5c-0.4,0-0.9-0.1-1.3-0.3l0.4-1.4
		c0.3,0.1,0.6,0.2,0.8,0.2c0.2,0,0.4-0.1,0.6-0.2c0.2-0.1,0.4-0.3,0.5-0.5l0.1-0.1l-3.2-5.9h2l2.1,4.3l2.2-4.3H40.3z"/>
	<path class="st0" d="M48.4,77.3L45,83.7c-0.3,0.6-0.7,1.1-1.2,1.4c-0.5,0.3-1,0.5-1.5,0.5c-0.4,0-0.9-0.1-1.3-0.3l0.4-1.4
		C41.7,84,42,84,42.2,84c0.2,0,0.4-0.1,0.6-0.2c0.2-0.1,0.4-0.3,0.5-0.5l0.1-0.1l-3.2-5.9h2l2.1,4.3l2.2-4.3H48.4z"/>
	<path class="st0" d="M57.5,83.9v3.2h-1.7v-1.7h-5.7v1.7h-1.7l0-3.2h0.3c0.5,0,0.8-0.4,1-1.1c0.2-0.7,0.3-1.7,0.4-3l0.1-2.5h6.2v6.5
		H57.5z M51.5,82.4c-0.1,0.6-0.3,1.1-0.6,1.4h3.6v-5h-2.8l0,1.2C51.7,81,51.6,81.8,51.5,82.4z"/>
	<path class="st0" d="M64.3,83.7h-3.7l-0.7,1.7h-1.9l3.6-8.1h1.8l3.6,8.1h-2L64.3,83.7z M63.7,82.2l-1.3-3.1l-1.3,3.1H63.7z"/>
	<path class="st0" d="M69.5,85c-0.7-0.4-1.2-0.9-1.6-1.5c-0.4-0.6-0.6-1.4-0.6-2.1c0-0.8,0.2-1.5,0.6-2.1c0.4-0.6,0.9-1.1,1.6-1.5
		c0.7-0.4,1.4-0.5,2.2-0.5c0.7,0,1.3,0.1,1.9,0.4c0.6,0.2,1,0.6,1.4,1.1l-1.2,1.1c-0.5-0.6-1.2-0.9-2-0.9c-0.5,0-0.9,0.1-1.3,0.3
		c-0.4,0.2-0.7,0.5-0.9,0.9c-0.2,0.4-0.3,0.8-0.3,1.3c0,0.5,0.1,0.9,0.3,1.3c0.2,0.4,0.5,0.7,0.9,0.9c0.4,0.2,0.8,0.3,1.3,0.3
		c0.8,0,1.5-0.3,2-1l1.2,1.1c-0.4,0.5-0.9,0.8-1.4,1.1c-0.6,0.2-1.2,0.4-1.9,0.4C70.9,85.5,70.1,85.3,69.5,85z"/>
	<path class="st0" d="M22.9,89.2c0.6,0.4,1.1,0.9,1.5,1.5c0.4,0.6,0.5,1.4,0.5,2.1s-0.2,1.5-0.5,2.1c-0.4,0.6-0.9,1.1-1.5,1.5
		c-0.6,0.4-1.3,0.5-2.1,0.5c-0.7,0-1.4-0.1-1.9-0.4c-0.6-0.2-1.1-0.6-1.4-1.1l1.2-1.1c0.6,0.6,1.3,1,2.1,1c0.6,0,1.1-0.2,1.5-0.5
		c0.4-0.3,0.7-0.8,0.8-1.4h-3.3v-1.4H23c-0.1-0.6-0.4-1-0.8-1.3s-0.9-0.5-1.5-0.5c-0.8,0-1.5,0.3-2.1,1l-1.2-1.1
		c0.4-0.5,0.9-0.8,1.4-1.1c0.6-0.2,1.2-0.4,1.9-0.4C21.6,88.7,22.3,88.9,22.9,89.2z"/>
	<path class="st0" d="M31.8,89.2c0.5,0.2,0.9,0.6,1.2,1c0.3,0.4,0.4,1,0.4,1.6c0,0.6-0.1,1.1-0.4,1.5c-0.3,0.4-0.7,0.8-1.2,1
		c-0.5,0.2-1.1,0.4-1.9,0.4h-1.6v2.2h-1.9v-8.1h3.5C30.7,88.8,31.3,89,31.8,89.2z M31.1,92.8c0.3-0.2,0.4-0.6,0.4-1
		c0-0.5-0.1-0.8-0.4-1c-0.3-0.2-0.7-0.4-1.3-0.4h-1.5v2.8h1.5C30.4,93.2,30.8,93,31.1,92.8z"/>
	<path class="st0" d="M40.3,90.4h-3.8l0,6.5h-1.9v-8.1h5.7L40.3,90.4z"/>
	<path class="st0" d="M45.5,94v2.9h-1.9V94l-3.1-5.2h2l2.2,3.6l2.2-3.6h1.8L45.5,94z"/>
	<path class="st0" d="M53.7,94v2.9h-1.9V94l-3.1-5.2h2l2.2,3.6l2.2-3.6h1.8L53.7,94z"/>
	<path class="st0" d="M64.6,88.8v8.1h-1.8v-6.5H60L60,92c0,1.1-0.1,2.1-0.3,2.8s-0.4,1.3-0.7,1.6c-0.3,0.4-0.8,0.6-1.4,0.6
		c-0.3,0-0.6,0-0.9-0.1l0.1-1.6c0.1,0,0.2,0,0.3,0c0.4,0,0.8-0.3,0.9-0.8c0.2-0.5,0.3-1.4,0.3-2.5l0.1-3.3H64.6z"/>
	<path class="st0" d="M71.4,89.2c0.6,0.4,1.1,0.9,1.5,1.5c0.4,0.6,0.5,1.4,0.5,2.1s-0.2,1.5-0.5,2.1c-0.4,0.6-0.9,1.1-1.5,1.5
		C70.7,96.9,70,97,69.2,97c-0.7,0-1.4-0.1-1.9-0.4c-0.6-0.2-1.1-0.6-1.4-1.1l1.2-1.1c0.6,0.6,1.3,1,2.1,1c0.6,0,1.1-0.2,1.5-0.5
		c0.4-0.3,0.7-0.8,0.8-1.4h-3.3v-1.4h3.2c-0.1-0.6-0.4-1-0.8-1.3c-0.4-0.3-0.9-0.5-1.5-0.5c-0.8,0-1.5,0.3-2.1,1l-1.2-1.1
		c0.4-0.5,0.9-0.8,1.4-1.1c0.6-0.2,1.2-0.4,1.9-0.4C70,88.7,70.7,88.9,71.4,89.2z"/>
	<path class="st0" d="M76,88.8l1.7,2.4l1.7-2.4h2.2l-2.7,3.9l2.9,4.2h-2.2l-1.9-2.7l-1.9,2.7h-2.2l2.9-4.1l-2.7-3.9H76z"/>
</g>
</svg>
