<svg xmlns="http://www.w3.org/2000/svg" viewBox="0 0 512 512" aria-hidden="true">
  <g fill="#78a450">
    <path d="M430.38 474.95c-3.44-.98-7.06-1.53-10.26-3.02-5.27-2.44-8.64-6.83-11.05-12.14-7.2-15.77-14.58-31.44-21.9-47.16-.35-.77-.79-1.49-1.32-2.46-3.95 4.23-7.9 8.34-11.7 12.56-4.11 4.53-8.27 8.96-14.37 10.84-15.19 4.62-31.09-7.22-29.72-23.2.74-8.85.72-17.76.93-26.66.26-10.52.37-21.04.63-31.56.37-16.25.74-32.51 1.23-48.76.16-5.6.16-11.29 1.14-16.79 1.79-9.92 9.59-16.56 19.53-17.95 8.24-1.16 14.61 2.37 20.71 7.31 12.03 9.78 24.22 19.39 36.34 29.05 12.35 9.85 24.73 19.64 37.06 29.49 6.11 4.88 12.1 9.87 18.3 14.61 4.46 3.39 6.76 7.99 7.48 13.24 1.67 12.33-5.48 22.8-17.56 25.94-2.65.7-5.43.86-8.2 1.04-6.27.39-12.54.65-19.39.98 2.09 4.57 3.92 8.66 5.83 12.73 6.04 12.96 12.17 25.87 18.14 38.87 6.55 14.33-3.11 30.95-18.76 32.51-.65.07-1.28.35-1.9.53h-1.16Z"/>
    <path d="M150.13 136.04h3.92c102.15 0 204.32.02 306.47-.05 13.91 0 25.45 12.61 20.5 27.89-11.19 34.67-22.48 69.31-33.72 103.96-2.88 8.87-5.76 17.74-8.82 27.12-2.65-2.04-4.99-3.83-7.34-5.67-4.41-3.46-8.75-7.01-13.24-10.43-1.44-1.09-1.65-2.11-1.09-3.81 11.89-36.41 23.73-72.84 35.57-109.28.33-.98.63-1.95 1-3.11H155.28c10.52 54.52 20.99 108.86 31.53 163.48h120.03c0 6.39.07 12.49-.02 18.6-.05 2.55-.42 5.09-.67 7.96H191.97c1.65 8.71 3.16 17.07 4.85 25.38.72 3.48 2.97 4.95 6.94 4.95h101.45v26.36h-77.23c.81 2.53 1.58 4.69 2.18 6.9 6.99 26.12-10.01 52.13-35.76 56.36-16.56 2.72-30.7-2.18-41.89-14.61-7.18-7.99-10.89-17.53-11.15-28.47-.35-13.44 4.25-24.89 13.91-34 3.92-3.72 9.01-6.25 13.72-9.01 1.51-.88 2.02-1.7 1.72-3.27L108.24 92.38c-.93-5.18-2.65-7.24-8.2-7.2-19.32.19-38.66.09-58.01.07-6.83 0-12.49-4.6-13.65-11.03-1.11-6.29 2.53-12.54 8.89-14.84 1.65-.6 3.53-.72 5.32-.74 19.81-.02 39.64.21 59.45-.07 15.56-.23 29.58 12.07 32.14 27.19 3.3 19.37 7.18 33.02 10.94 52.32l5.01-2.04Zm36.27 310.77c10.47-.19 18.83-8.1 18.65-18.67-.16-10.91-7.69-18.34-18.44-18.48-10.59-.16-18.34 7.69-18.69 18.32-.33 10.12 8.4 18.8 18.48 18.83Z"/>
    <path d="M348.81 228.99c-.02 5.2-2.79 8.38-6.9 8.64-2.67.19-6.83-1.86-7.5-6.04-1.25-8.01-2.69-16-3.95-24.03-.58-3.72 2.21-7.55 5.81-8.31 3.62-.74 7.73 1.42 8.43 5.06 1.62 8.52 2.88 17.14 4.11 24.68Zm-32.7 21.37c-.33 3.34-2.09 5.34-4.32 6.64-2.28 1.35-4.97 1.46-7.27-.16-6.9-4.88-13.75-9.78-20.5-14.81-2.9-2.14-3.23-7.01-1-10.03 2.23-3 6.64-3.79 9.92-1.53 4.3 2.93 8.45 6.06 12.66 9.13 2.53 1.86 5.2 3.55 7.43 5.69 1.38 1.3 2.08 3.35 3.08 5.07ZM372 239.16c.46-1.3.67-2.79 1.46-3.88 4.67-6.57 9.4-13.12 14.26-19.55 2.81-3.72 6.62-4.27 9.99-1.81 3.51 2.55 4.32 6.48 1.72 10.19-4.64 6.71-9.45 13.31-14.26 19.9-1.65 2.28-5.48 3.18-8.31 2.21-2.8-.97-4.52-3.62-4.86-7.06ZM299 281.22c3.46-.44 7.08 2.93 7.31 6.2.33 4.64-1.81 7.57-6.2 8.31-7.92 1.32-15.84 2.67-23.75 3.97-3.09.51-7.24-2.78-7.94-5.22-.98-4.13.98-8.2 4.85-9.03 5.62-1.21 11.35-2 17.02-2.93 2.9-.47 5.81-.89 8.71-1.3Z"/>
  </g>
</svg>
